<svg xmlns="http://www.w3.org/2000/svg" viewBox="0 0 24 24" width="96" height="96"><rect width="24" height="24" fill="#ece4d8"/><path d="M2.8 2.4L2.8 20.9A0.9 0.9 0 0 0 4.6 20.9L4.6 2.4L2.8 2.4ZM2.8 4.2L20.2 4.2A0.9 0.9 0 0 0 20.2 2.4L2.8 2.4L2.8 4.2ZM17.192 4.16A12.6 12.6 0 0 1 16.91 7.288L8.801 5.517A4.3 4.3 0 0 0 8.897 4.45ZM16.655 8.267A12.6 12.6 0 0 1 15.373 11.135L8.277 6.83A4.3 4.3 0 0 0 8.714 5.851ZM14.814 11.978A12.6 12.6 0 0 1 12.672 14.275L7.355 7.902A4.3 4.3 0 0 0 8.086 7.118ZM20.151 8.767A16.1 16.1 0 0 1 15.547 16.405L14.459 15.232A14.5 14.5 0 0 0 18.606 8.353ZM20.052 6.049L21.504 9.129L17.254 7.991ZM13.097 17.587L13.507 14.206L16.499 17.432Z" fill="#1c1b22"/><path d="M11.87 14.891A12.6 12.6 0 0 1 9.099 16.369L6.135 8.617A4.3 4.3 0 0 0 7.081 8.112ZM8.141 16.692A12.6 12.6 0 0 1 5.04 17.192L4.75 8.897A4.3 4.3 0 0 0 5.808 8.727Z" fill="#1c1b22" opacity="0.5"/></svg>