<svg xmlns="http://www.w3.org/2000/svg" viewBox="0 0 24 24" width="96" height="96"><rect width="24" height="24" fill="#ece4d8"/><path d="M2.8 2.4L2.8 20.9A0.9 0.9 0 0 0 4.6 20.9L4.6 2.4L2.8 2.4ZM2.8 4.2L20.2 4.2A0.9 0.9 0 0 0 20.2 2.4L2.8 2.4L2.8 4.2ZM17.104 14.582A16 16 0 0 1 15.012 16.748L7.724 8.245A4.8 4.8 0 0 0 8.351 7.595Z" fill="#1c1b22"/><path d="M20.444 6.827A16 16 0 0 1 19.746 9.756L9.144 6.147A4.8 4.8 0 0 0 9.353 5.268ZM19.295 10.929A16 16 0 0 1 17.849 13.57L8.575 7.291A4.8 4.8 0 0 0 9.009 6.499ZM14.027 17.528A16 16 0 0 1 11.438 19.065L6.651 8.94A4.8 4.8 0 0 0 7.428 8.478ZM10.282 19.557A16 16 0 0 1 7.378 20.357L5.434 9.327A4.8 4.8 0 0 0 6.305 9.087Z" fill="#1c1b22" opacity="0.5"/></svg>