<svg xmlns="http://www.w3.org/2000/svg" viewBox="0 0 24 24" width="96" height="96"><rect width="24" height="24" fill="#ece4d8"/><path d="M2.8 3.3L2.8 20.9A0.9 0.9 0 0 0 4.6 20.9L4.6 3.3A0.9 0.9 0 0 0 2.8 3.3ZM3.3 4.2L20.2 4.2A0.9 0.9 0 0 0 20.2 2.4L3.3 2.4A0.9 0.9 0 0 0 3.3 4.2ZM16.655 8.267A12.6 12.6 0 0 1 15.373 11.135L8.277 6.83A4.3 4.3 0 0 0 8.714 5.851Z" fill="#1c1b22"/><path d="M17.192 4.16A12.6 12.6 0 0 1 16.91 7.288L8.801 5.517A4.3 4.3 0 0 0 8.897 4.45ZM14.814 11.978A12.6 12.6 0 0 1 12.672 14.275L7.355 7.902A4.3 4.3 0 0 0 8.086 7.118ZM11.87 14.891A12.6 12.6 0 0 1 9.099 16.369L6.135 8.617A4.3 4.3 0 0 0 7.081 8.112ZM8.141 16.692A12.6 12.6 0 0 1 5.04 17.192L4.75 8.897A4.3 4.3 0 0 0 5.808 8.727Z" fill="#1c1b22" opacity="0.5"/></svg>