<svg xmlns="http://www.w3.org/2000/svg" viewBox="0 0 24 24" width="96" height="96"><rect width="24" height="24" fill="#1c1b22"/><path d="M4.2 4.5H5.1A1.2 1.2 0 0 1 6.3 5.7V18.3A1.2 1.2 0 0 1 5.1 19.5H4.2A1.2 1.2 0 0 1 3 18.3V5.7A1.2 1.2 0 0 1 4.2 4.5ZM6.52 12.83L17.87 15.24L18.22 13.58L6.88 11.17ZM13.88 17.19L18.39 15.19L17.7 13.63L13.19 15.64ZM14.11 11.31L17.42 14.98L18.68 13.84L15.37 10.17ZM6.15 12.65L15.04 20.11L16.13 18.81L7.25 11.35ZM10.6 19.95L15.53 20.3L15.65 18.61L10.72 18.26ZM13.56 14.87L14.76 19.66L16.41 19.25L15.21 14.46Z" fill="#e3e3e3"/></svg>