<svg xmlns="http://www.w3.org/2000/svg" viewBox="0 0 24 24" width="96" height="96"><rect width="24" height="24" fill="#1c1b22"/><path d="M5.7 3H18.3A1.2 1.2 0 0 1 19.5 4.2V5.1A1.2 1.2 0 0 1 18.3 6.3H5.7A1.2 1.2 0 0 1 4.5 5.1V4.2A1.2 1.2 0 0 1 5.7 3ZM11.35 6.15L3.89 15.04L5.19 16.13L12.65 7.25ZM4.05 10.6L3.7 15.53L5.39 15.65L5.74 10.72ZM9.13 13.56L4.34 14.76L4.75 16.41L9.54 15.21ZM11.35 7.25L18.81 16.13L20.11 15.04L12.65 6.15ZM14.46 15.21L19.25 16.41L19.66 14.76L14.87 13.56ZM18.26 10.72L18.61 15.65L20.3 15.53L19.95 10.6Z" fill="#e3e3e3"/></svg>