<svg xmlns="http://www.w3.org/2000/svg" viewBox="0 0 24 24" width="96" height="96"><rect width="24" height="24" fill="#ece4d8"/><path d="M3 7.6L21 7.6A1 1 0 0 1 21 5.6L3 5.6A1 1 0 0 1 3 7.6ZM10.8 8.9L10.8 19A1.2 1.2 0 0 1 13.2 19L13.2 8.9A1.2 1.2 0 0 1 10.8 8.9ZM13.21 9.053L14.51 19.153A1.2 1.2 0 0 1 16.89 18.847L15.59 8.747A1.2 1.2 0 0 1 13.21 9.053ZM15.638 9.199L18.238 19.299A1.2 1.2 0 0 1 20.562 18.701L17.962 8.601A1.2 1.2 0 0 1 15.638 9.199Z" fill="#1c1b22"/><path d="M6.425 8.701L3.825 18.801A0.8 0.8 0 0 1 5.375 19.199L7.975 9.099A0.8 0.8 0 0 1 6.425 8.701ZM8.807 8.798L7.507 18.898A0.8 0.8 0 0 1 9.093 19.102L10.393 9.002A0.8 0.8 0 0 1 8.807 8.798Z" fill="#1c1b22" opacity="0.5"/></svg>