<svg xmlns="http://www.w3.org/2000/svg" viewBox="0 0 24 24" width="96" height="96"><rect width="24" height="24" fill="#ece4d8"/><path d="M3.6 6L20.4 6A1 1 0 0 0 20.4 4L3.6 4A1 1 0 0 0 3.6 6ZM13.506 20.929A16 16 0 0 1 10.494 20.929L11.624 8.982A4 4 0 0 0 12.376 8.982Z" fill="#1c1b22"/><path d="M5.188 19.477A16 16 0 0 1 2.595 17.944L9.649 8.236A4 4 0 0 0 10.297 8.619ZM9.249 20.762A16 16 0 0 1 6.344 19.967L10.586 8.742A4 4 0 0 0 11.312 8.94ZM17.656 19.967A16 16 0 0 1 14.751 20.762L12.688 8.94A4 4 0 0 0 13.414 8.742ZM21.405 17.944A16 16 0 0 1 18.812 19.477L13.703 8.619A4 4 0 0 0 14.351 8.236Z" fill="#1c1b22" opacity="0.5"/></svg>