<svg xmlns="http://www.w3.org/2000/svg" viewBox="0 0 24 24" width="96" height="96"><rect width="24" height="24" fill="#ece4d8"/><path d="M2.8 2.4L2.8 20.9A0.9 0.9 0 0 0 4.6 20.9L4.6 2.4L2.8 2.4ZM2.8 4.2L20.2 4.2A0.9 0.9 0 0 0 20.2 2.4L2.8 2.4L2.8 4.2ZM14.447 12.461A12.6 12.6 0 0 1 12.8 14.167L7.724 8.245A4.8 4.8 0 0 0 8.351 7.595ZM12.024 14.781A12.6 12.6 0 0 1 9.985 15.991L6.651 8.94A4.8 4.8 0 0 0 7.428 8.478ZM9.074 16.379A12.6 12.6 0 0 1 6.788 17.009L5.434 9.327A4.8 4.8 0 0 0 6.305 9.087ZM15.303 16.628A16.1 16.1 0 0 1 10.037 19.754L9.497 18.248A14.5 14.5 0 0 0 14.239 15.432ZM16.713 14.302L16.233 17.674L13.308 14.387ZM7.319 19.879L9.024 16.93L10.51 21.072Z" fill="#1c1b22"/><path d="M17.077 6.354A12.6 12.6 0 0 1 16.528 8.661L9.144 6.147A4.8 4.8 0 0 0 9.353 5.268ZM16.172 9.584A12.6 12.6 0 0 1 15.034 11.664L8.575 7.291A4.8 4.8 0 0 0 9.009 6.499Z" fill="#1c1b22" opacity="0.5"/></svg>