<svg xmlns="http://www.w3.org/2000/svg" viewBox="0 0 24 24" width="96" height="96"><rect width="24" height="24" fill="#ece4d8"/><path d="M3.6 6L20.4 6A1 1 0 0 0 20.4 4L3.6 4A1 1 0 0 0 3.6 6ZM13.186 17.544A12.6 12.6 0 0 1 10.814 17.544L11.624 8.982A4 4 0 0 0 12.376 8.982ZM16.454 16.787A12.6 12.6 0 0 1 14.166 17.412L12.688 8.94A4 4 0 0 0 13.414 8.742ZM19.406 15.194A12.6 12.6 0 0 1 17.365 16.401L13.703 8.619A4 4 0 0 0 14.351 8.236ZM19.124 19.438A16.1 16.1 0 0 1 13.217 21.054L13.096 19.458A14.5 14.5 0 0 0 18.416 18.003ZM21.102 17.57L19.744 20.693L17.797 16.748ZM10.564 20.453L12.991 18.062L13.323 22.45Z" fill="#1c1b22"/><path d="M6.635 16.401A12.6 12.6 0 0 1 4.594 15.194L9.649 8.236A4 4 0 0 0 10.297 8.619ZM9.834 17.412A12.6 12.6 0 0 1 7.546 16.787L10.586 8.742A4 4 0 0 0 11.312 8.94Z" fill="#1c1b22" opacity="0.5"/></svg>