<svg xmlns="http://www.w3.org/2000/svg" viewBox="0 0 24 24" width="96" height="96"><rect width="24" height="24" fill="#1c1b22"/><path d="M4.2 4.5H5.1A1.2 1.2 0 0 1 6.3 5.7V18.3A1.2 1.2 0 0 1 5.1 19.5H4.2A1.2 1.2 0 0 1 3 18.3V5.7A1.2 1.2 0 0 1 4.2 4.5ZM7.25 12.65L16.13 5.19L15.04 3.89L6.15 11.35ZM15.21 9.54L16.41 4.75L14.76 4.34L13.56 9.13ZM10.72 5.74L15.65 5.39L15.53 3.7L10.6 4.05ZM6.88 12.83L18.22 10.42L17.87 8.76L6.52 11.17ZM15.37 13.83L18.68 10.16L17.42 9.02L14.11 12.69ZM13.19 8.36L17.7 10.37L18.39 8.81L13.88 6.81Z" fill="#e3e3e3"/></svg>