<svg xmlns="http://www.w3.org/2000/svg" viewBox="0 0 24 24" width="96" height="96"><rect width="24" height="24" fill="#1c1b22"/><path d="M4.2 4.5H5.1A1.2 1.2 0 0 1 6.3 5.7V18.3A1.2 1.2 0 0 1 5.1 19.5H4.2A1.2 1.2 0 0 1 3 18.3V5.7A1.2 1.2 0 0 1 4.2 4.5ZM6.99 12.8L17.89 8.83L17.31 7.23L6.41 11.2ZM15.54 12.6L18.3 8.51L16.9 7.56L14.13 11.65ZM12.62 7.49L17.37 8.85L17.83 7.22L13.08 5.86ZM6.41 12.8L17.31 16.77L17.89 15.17L6.99 11.2ZM13.08 18.14L17.83 16.78L17.37 15.15L12.62 16.51ZM14.13 12.35L16.9 16.44L18.3 15.49L15.54 11.4Z" fill="#e3e3e3"/></svg>