<svg xmlns="http://www.w3.org/2000/svg" viewBox="0 0 24 24" width="96" height="96"><rect width="24" height="24" fill="#ece4d8"/><path d="M3 7.6L21 7.6A1 1 0 0 1 21 5.6L3 5.6A1 1 0 0 1 3 7.6ZM6.038 8.601L3.438 18.701A1.2 1.2 0 0 1 5.762 19.299L8.362 9.199A1.2 1.2 0 0 1 6.038 8.601ZM8.41 8.747L7.11 18.847A1.2 1.2 0 0 1 9.49 19.153L10.79 9.053A1.2 1.2 0 0 1 8.41 8.747ZM10.8 8.9L10.8 19A1.2 1.2 0 0 1 13.2 19L13.2 8.9A1.2 1.2 0 0 1 10.8 8.9ZM13.21 9.053L14.51 19.153A1.2 1.2 0 0 1 16.89 18.847L15.59 8.747A1.2 1.2 0 0 1 13.21 9.053ZM15.638 9.199L18.238 19.299A1.2 1.2 0 0 1 20.562 18.701L17.962 8.601A1.2 1.2 0 0 1 15.638 9.199Z" fill="#1c1b22"/></svg>