<svg xmlns="http://www.w3.org/2000/svg" viewBox="0 0 24 24" width="96" height="96"><rect width="24" height="24" fill="#ece4d8"/><path d="M2.8 2.4L2.8 20.9A0.9 0.9 0 0 0 4.6 20.9L4.6 2.4L2.8 2.4ZM2.8 4.2L20.2 4.2A0.9 0.9 0 0 0 20.2 2.4L2.8 2.4L2.8 4.2ZM16.655 8.267A12.6 12.6 0 0 1 15.373 11.135L8.277 6.83A4.3 4.3 0 0 0 8.714 5.851ZM14.814 11.978A12.6 12.6 0 0 1 12.672 14.275L7.355 7.902A4.3 4.3 0 0 0 8.086 7.118ZM11.87 14.891A12.6 12.6 0 0 1 9.099 16.369L6.135 8.617A4.3 4.3 0 0 0 7.081 8.112ZM19.737 10.085A16.1 16.1 0 0 1 11.128 19.317L10.479 17.855A14.5 14.5 0 0 0 18.232 9.54ZM19.87 7.368L21.053 10.562L16.916 9.063ZM8.427 19.64L9.912 16.575L11.696 20.597Z" fill="#1c1b22"/><path d="M17.192 4.16A12.6 12.6 0 0 1 16.91 7.288L8.801 5.517A4.3 4.3 0 0 0 8.897 4.45ZM8.141 16.692A12.6 12.6 0 0 1 5.04 17.192L4.75 8.897A4.3 4.3 0 0 0 5.808 8.727Z" fill="#1c1b22" opacity="0.5"/></svg>