<svg xmlns="http://www.w3.org/2000/svg" viewBox="0 0 24 24" width="96" height="96"><rect width="24" height="24" fill="#1c1b22"/><path d="M5.7 3H18.3A1.2 1.2 0 0 1 19.5 4.2V5.1A1.2 1.2 0 0 1 18.3 6.3H5.7A1.2 1.2 0 0 1 4.5 5.1V4.2A1.2 1.2 0 0 1 5.7 3ZM11.2 6.41L7.23 17.31L8.83 17.89L12.8 6.99ZM5.86 13.08L7.22 17.83L8.85 17.37L7.49 12.62ZM11.65 14.13L7.56 16.9L8.51 18.3L12.6 15.54ZM11.2 6.99L15.17 17.89L16.77 17.31L12.8 6.41ZM11.4 15.54L15.49 18.3L16.44 16.9L12.35 14.13ZM16.51 12.62L15.15 17.37L16.78 17.83L18.14 13.08Z" fill="#e3e3e3"/></svg>