<svg xmlns="http://www.w3.org/2000/svg" viewBox="0 0 24 24" width="96" height="96"><rect width="24" height="24" fill="#ece4d8"/><path d="M2.8 3.3L2.8 20.9A0.9 0.9 0 0 1 4.6 20.9L4.6 3.3A0.9 0.9 0 0 1 2.8 3.3ZM3.3 4.2L20.2 4.2A0.9 0.9 0 0 1 20.2 2.4L3.3 2.4A0.9 0.9 0 0 1 3.3 4.2ZM17.992 4.132A13.4 13.4 0 0 1 17.691 7.459L8.801 5.517A4.3 4.3 0 0 0 8.897 4.45ZM17.42 8.5A13.4 13.4 0 0 1 16.057 11.55L8.277 6.83A4.3 4.3 0 0 0 8.714 5.851ZM15.463 12.446A13.4 13.4 0 0 1 13.185 14.889L7.355 7.902A4.3 4.3 0 0 0 8.086 7.118ZM12.332 15.544A13.4 13.4 0 0 1 9.385 17.117L6.135 8.617A4.3 4.3 0 0 0 7.081 8.112ZM8.365 17.46A13.4 13.4 0 0 1 5.068 17.992L4.75 8.897A4.3 4.3 0 0 0 5.808 8.727ZM19.445 11.209A16.25 16.25 0 0 1 2.901 20.761L3.079 19.07A14.55 14.55 0 0 0 17.892 10.518ZM20.011 7.849L21.094 12.053L16.161 9.857ZM-0.292 19.571L3.372 17.241L2.807 22.611Z" fill="#1c1b22"/></svg>